<?xml version="1.0" standalone="no"?>
<!DOCTYPE svg PUBLIC "-//W3C//DTD SVG 20010904//EN"
 "http://www.w3.org/TR/2001/REC-SVG-20010904/DTD/svg10.dtd">
<svg version="1.0" xmlns="http://www.w3.org/2000/svg"
 width="217.000000pt" height="216.000000pt" viewBox="0 0 217.000000 216.000000"
 preserveAspectRatio="xMidYMid meet">

<g transform="translate(0.000000,216.000000) scale(0.100000,-0.100000)"
fill="#000000" stroke="none">
<path d="M1082 2068 l-72 -73 227 -227 228 -228 72 72 72 72 -222 225 c-122
125 -224 227 -227 229 -3 1 -38 -31 -78 -70z"/>
<path d="M885 1870 l-70 -70 228 -228 227 -227 72 73 73 72 -225 225 c-124
124 -227 225 -230 225 -3 0 -37 -32 -75 -70z"/>
<path d="M686 1671 l-69 -70 217 -225 c120 -125 224 -226 230 -226 6 0 43 32
81 70 l70 70 -225 225 c-124 124 -227 225 -230 225 -3 0 -37 -31 -74 -69z"/>
<path d="M1642 1507 l-72 -72 228 -228 227 -227 73 73 72 72 -228 228 -227
227 -73 -73z"/>
<path d="M490 1475 l-74 -75 507 -507 507 -508 71 72 72 71 -503 511 c-278
281 -504 511 -505 511 0 0 -34 -34 -75 -75z"/>
<path d="M1445 1310 l-70 -70 228 -228 227 -227 72 73 73 72 -225 225 c-124
124 -227 225 -230 225 -3 0 -37 -32 -75 -70z"/>
<path d="M300 1290 l-74 -68 461 -469 c254 -257 482 -488 507 -513 l46 -44 72
71 72 72 -192 198 c-105 109 -332 338 -504 510 l-313 312 -75 -69z"/>
<path d="M1242 1107 l-72 -72 228 -228 227 -227 73 73 72 72 -228 228 -227
227 -73 -73z"/>
<path d="M105 1100 l-69 -69 505 -509 504 -508 70 65 c39 36 72 70 74 75 3 8
-998 1016 -1009 1016 -3 0 -37 -31 -75 -70z"/>
</g>
</svg>
